# AST/ASF file generated using VICON BodyLanguage
# -----------------------------------------------
:version 1.10
:name VICON
:units
  mass 1.0
  length 0.45
  angle deg
:documentation
   .ast/.asf automatically generated from VICON data using
   VICON BodyBuilder and BodyLanguage model FoxedUp or BRILLIANT.MOD
:root
   order TX TY TZ RX RY RZ
   axis XYZ
   position 0 0 0  
   orientation 0 0 0 
:bonedata
  begin
     id 1 
     name lhipjoint
     direction 0.577973 -0.728611 0.367523 
     length 2.48544 
     axis 0 0 0  XYZ
  end
  begin
     id 2 
     name lfemur
     direction 0.34202 -0.939693 0  
     length 7.1921  
     axis 0 0 20  XYZ
    dof rx ry rz
    limits (-160.0 20.0)
           (-70.0 70.0)
           (-60.0 70.0)
  end
  begin
     id 3 
     name ltibia
     direction 0.34202 -0.939693 0   
     length 7.71059   
     axis 0 0 20   XYZ
    dof rx
    limits (-10.0 170.0)
  end
  begin
     id 4 
     name lfoot
     direction 0.089538 -0.246004 0.965124   
     length 2.19909   
     axis -90 7.62852e-016 20   XYZ
    dof rx rz
    limits (-45.0 90.0)
           (-70.0 20.0)
  end
  begin
     id 5 
     name ltoes
     direction 1.53544e-011 -4.21829e-011 1   
     length 1.10116   
     axis -90 7.62852e-016 20   XYZ
    dof rx
    limits (-90.0 20.0)
  end
  begin
     id 6 
     name rhipjoint
     direction -0.554414 -0.743062 0.374812   
     length 2.4371  
     axis 0 0 0  XYZ 
  end
  begin
     id 7 
     name rfemur
     direction -0.34202 -0.939693 0   
     length 7.47254   
     axis 0 0 -20   XYZ
    dof rx ry rz
    limits (-160.0 20.0)
           (-70.0 70.0)
           (-70.0 60.0)
  end
  begin
     id 8 
     name rtibia
     direction -0.34202 -0.939693 0   
     length 7.65855   
     axis 0 0 -20   XYZ
    dof rx
    limits (-10.0 170.0)
 end
 begin
     id 9 
     name rfoot
     direction -0.133779 -0.367555 0.92033   
     length 2.43006  
     axis -90 -7.62852e-016 -20   XYZ
    dof rx rz
    limits (-45.0 90.0)
           (-20.0 70.0)
  end
  begin
     id 10 
     name rtoes
     direction -1.53563e-011 -4.21889e-011 1   
     length 1.19625   
     axis -90 -7.62852e-016 -20   XYZ
    dof rx
    limits (-90.0 20.0)
  end
  begin
     id 11 
     name lowerback
     direction 0.0249066 0.998043 -0.0573585   
     length 2.08485   
     axis 0 0 0   XYZ
    dof rx ry rz
    limits (-20.0 45.0)
           (-30.0 30.0)
           (-30.0 30.0)
  end
  begin
     id 12 
     name upperback
     direction 0.0237884 0.999673 0.00943178   
     length 2.08515   
     axis 0 0 0   XYZ
    dof rx ry rz
    limits (-20.0 45.0)
           (-30.0 30.0)
           (-30.0 30.0)
  end
  begin
     id 13 
     name thorax
     direction 0.0106671 0.999301 0.0358174   
     length 2.09037   
     axis 0 0 0   XYZ
    dof rx ry rz
    limits (-20.0 45.0)
           (-30.0 30.0)
           (-30.0 30.0)
  end
  begin
     id 14 
     name lowerneck
     direction -0.0580016 0.987052 0.149546   
     length 1.84454   
     axis 0 0 0   XYZ
    dof rx ry rz
    limits (-20.0 45.0)
           (-30.0 30.0)
           (-30.0 30.0)
  end
  begin
     id 15 
     name upperneck
     direction 0.079456 0.981963 -0.171567   
     length 1.88141   
     axis 0 0 0   XYZ
    dof rx ry rz
    limits (-20.0 45.0)
           (-30.0 30.0)
           (-30.0 30.0)
  end
  begin
     id 16
     name head
     direction 0.0262167 0.9967 -0.0768276  
     length 1.89541  
     axis 0 0 0   XYZ
    dof rx ry rz
    limits (-20.0 45.0)
           (-30.0 30.0)
           (-30.0 30.0)
  end
  begin
     id 17 
     name lclavicle
     direction 0.946135 0.322134 -0.0325326  
     length 3.949  
     axis 0 0 0   XYZ
    dof ry rz
    limits (-20.0 10.0)
           (0.0 20.0)
  end
  begin
     id 18 
     name lhumerus
     direction 1 -4.48964e-011 1.94005e-028   
     length 5.10995   
     axis 180 -30 -90   XYZ
    dof rx ry rz
    limits (-60.0 90.0)
           (-90.0 90.0)
           (-90.0 90.0)
  end
  begin
     id 19
     name lradius
     direction 1 -4.48976e-011 2.87852e-027   
     length 3.21207   
     axis 180 -30 -90   XYZ
    dof rx
    limits (-10.0 170.0)
  end
  begin
     id 20
     name lwrist
     direction 1 -4.48963e-011 1.9975e-027   
     length 1.60604   
     axis 2.96054e-016 90 90   XYZ
    dof ry
    limits (-180.0 0.0)
 end
  begin
     id 21 
     name lhand
     direction 1 -4.48919e-011 4.00227e-027   
     length 0.63349   
     axis -2.5488e-015 90 90   XYZ
    dof rx rz
    limits (-90.0 90.0)
           (-45.0 45.0)
  end
  begin
     id 22 
     name lfingers
     direction 1 -4.49037e-011 7.9652e-027   
     length 0.510736   
     axis -5.0975e-015 90 90   XYZ
    dof rx
    limits (0.0 90.0)
  end
  begin
     id 23
     name lthumb
     direction 0.707107 -6.34922e-011 0.707107   
     length 0.733318   
     axis -90 45 -4.48553e-014   XYZ
    dof rx rz
    limits (-45.0 45.0)
           (-45.0 45.0)
  end
  begin
     id 24 
     name rclavicle
     direction -0.940085 0.328911 -0.0897654   
     length 3.93848  
     axis 0 0 0   XYZ 
    dof ry rz
    limits (-10.0 20.0)
           (-20.0 0.0)
  end
  begin
     id 25 
     name rhumerus
     direction -1 -4.48958e-011 3.02044e-027  
     length 5.25109   
     axis 180 30 90   XYZ
    dof rx ry rz
    limits (-90.0 60.0)
           (-90.0 90.0)
           (-90.0 90.0)
  end
  begin
     id 26 
     name rradius
     direction -1 -4.4897e-011 9.78352e-028   
     length 3.28364   
     axis 180 30 90   XYZ
    dof rx
    limits (-10.0 170.0)
  end
  begin
     id 27 
     name rwrist
     direction -1 -4.48943e-011 1.99918e-027   
     length 1.64182   
     axis 2.96054e-016 -90 -90   XYZ
    dof ry
    limits (-180.0 0.0)
  end
  begin
     id 28
     name rhand
     direction -1 -4.49024e-011 3.98478e-027   
     length 0.599745   
     axis -2.5488e-015 -90 -90   XYZ
    dof rx rz
    limits (-90.0 90.0)
           (-45.0 45.0)
  end
  begin
     id 29
     name rfingers
     direction -1 -4.48914e-011 8.00621e-027   
     length 0.48353   
     axis -5.0975e-015 -90 -90   XYZ
    dof rx
    limits (0.0 90.0)
  end
  begin
     id 30
     name rthumb
     direction -0.707107 -6.34992e-011 0.707107   
     length 0.694255   
     axis -90 -45 4.48553e-014   XYZ
    dof rx rz
    limits (-45.0 45.0)
           (-45.0 45.0)
  end
:hierarchy
  begin
    root lhipjoint rhipjoint lowerback
    lhipjoint lfemur
    lfemur ltibia
    ltibia lfoot
    lfoot ltoes
    rhipjoint rfemur
    rfemur rtibia
    rtibia rfoot
    rfoot rtoes
    lowerback upperback
    upperback thorax
    thorax lowerneck lclavicle rclavicle
    lowerneck upperneck
    upperneck head
    lclavicle lhumerus
    lhumerus lradius
    lradius lwrist
    lwrist lhand lthumb
    lhand lfingers
    rclavicle rhumerus
    rhumerus rradius
    rradius rwrist
    rwrist rhand rthumb
    rhand rfingers
  end

#!OML:ASF E:\CV Data\Top Level 1\Subject 1\Session 1\player.ASF
:FULLY-SPECIFIED
:DEGREES
201
root 12.3802 16.9325 -5.36815 4.41237 -76.4736 2.65008
lowerback 6.87147 -0.436926 2.03465
upperback 0.302573 -0.37372 2.08378
thorax -3.54083 -0.214533 1.04752
lowerneck -15.7585 10.7075 -2.87167
upperneck 22.4082 15.2399 1.205
head 9.32342 6.92178 2.7238
rclavicle -3.16068e-014 -1.19271e-014
rhumerus -34.1021 40.5832 -100.693
rradius 100.523
rwrist -8.948
rhand -39.8232 23.8614
rfingers 7.12502
rthumb -12.7974 -5.72633
lclavicle -3.16068e-014 -1.19271e-014
lhumerus -35.6672 -38.4221 109.303
lradius 104.54
lwrist 30.4548
lhand -32.1038 29.4564
lfingers 7.12502
lthumb -5.34895 59.3689
rfemur -39.5776 -1.99851 20.8376
rtibia 45.1447
rfoot -11.1312 -10.8536
rtoes 13.0843
lfemur -2.29473 5.53167 -16.6291
ltibia 44.9847
lfoot -8.00001 -1.45838
ltoes -9.43627
202
root 12.4779 16.9133 -5.3617 4.15923 -75.971 3.12488
lowerback 6.80197 -0.506967 1.90479
upperback 0.240504 -0.476039 2.09537
thorax -3.56465 -0.262815 1.14224
lowerneck -15.786 10.6372 -2.92858
upperneck 22.3125 15.1579 1.19364
head 9.29348 6.88241 2.7162
rclavicle 3.71727e-014 -2.38542e-015
rhumerus -34.2439 40.4754 -100.696
rradius 100.879
rwrist -8.85008
rhand -39.97 24.3186
rfingers 7.12502
rthumb -12.9389 -5.26022
lclavicle 3.71727e-014 -2.38542e-015
lhumerus -35.7474 -38.4601 109.547
lradius 104.796
lwrist 30.4341
lhand -32.336 29.1643
lfingers 7.12502
lthumb -5.57317 59.071
rfemur -40.2307 -2.30964 20.5569
rtibia 45.3255
rfoot -10.8697 -10.9971
rtoes 13.072
lfemur -1.69366 5.17217 -16.884
ltibia 43.4066
lfoot -7.6717 -1.45026
ltoes -10.9656
203
root 12.5783 16.8916 -5.35524 4.00882 -75.4526 3.49974
lowerback 6.73977 -0.5769 1.78489
upperback 0.178746 -0.577003 2.11593
thorax -3.59176 -0.310531 1.24052
lowerneck -15.7774 10.5564 -3.06956
upperneck 22.1648 15.0673 1.22993
head 9.22794 6.8413 2.72968
rclavicle -5.98342e-014 1.59028e-014
rhumerus -34.3644 40.376 -100.664
rradius 101.248
rwrist -8.70807
rhand -40.0934 24.7569
rfingers 7.12502
rthumb -13.0578 -4.81439
lclavicle -5.98342e-014 1.59028e-014
lhumerus -35.7966 -38.5133 109.778
lradius 105.059
lwrist 30.4395
lhand -32.6253 28.8882
lfingers 7.12502
lthumb -5.85251 58.7874
rfemur -40.9081 -2.6456 20.2935
rtibia 45.5267
rfoot -10.6117 -11.131
rtoes 13.0973
lfemur -1.15857 4.75396 -17.1311
ltibia 41.8672
lfoot -7.66336 -1.33071
ltoes -13.1585
204
root 12.6822 16.8666 -5.34943 4.00175 -74.9128 3.73691
lowerback 6.6896 -0.649587 1.67799
upperback 0.113376 -0.679749 2.15358
thorax -3.6288 -0.359273 1.34955
lowerneck -15.7422 10.4683 -3.27807
upperneck 21.9759 14.9719 1.30192
head 9.13501 6.79933 2.75979
rclavicle 7.95139e-015 5.56597e-015
rhumerus -34.4645 40.2959 -100.598
rradius 101.627
rwrist -8.5247
rhand -40.1949 25.1899
rfingers 7.12502
rthumb -13.1556 -4.37504
lclavicle 7.95139e-015 5.56597e-015
lhumerus -35.8245 -38.5628 110.019
lradius 105.324
lwrist 30.4269
lhand -32.9682 28.6217
lfingers 7.12502
lthumb -6.18347 58.5114
rfemur -41.6178 -3.00371 20.0637
rtibia 45.7488
rfoot -10.3514 -11.2629
rtoes 13.1367
lfemur -0.699795 4.28272 -17.3501
ltibia 40.3955
lfoot -8.10154 -1.10541
ltoes -15.738
205
root 12.7886 16.8383 -5.34428 4.08245 -74.3772 3.87471
lowerback 6.65513 -0.707434 1.57887
upperback 0.0541068 -0.761813 2.19578
thorax -3.66813 -0.397824 1.45709
lowerneck -15.7192 10.3681 -3.45272
upperneck 21.7846 14.8559 1.35752
head 9.04882 6.74839 2.77862
rclavicle 2.36554e-014 -5.56597e-015
rhumerus -34.5352 40.2061 -100.5
rradius 102.012
rwrist -8.29925
rhand -40.31 25.6482
rfingers 7.12502
rthumb -13.2666 -3.90954
lclavicle 2.36554e-014 -5.56597e-015
lhumerus -35.8395 -38.6493 110.267
lradius 105.59
lwrist 30.3833
lhand -33.2875 28.383
lfingers 7.12502
lthumb -6.4918 58.2635
rfemur -42.3419 -3.36507 19.8593
rtibia 45.9969
rfoot -10.0932 -11.3889
rtoes 13.1897
lfemur -0.290498 3.78194 -17.5477
ltibia 39.0144
lfoot -8.99561 -0.765179
ltoes -18.3346
206
root 12.8976 16.8068 -5.3396 4.2141 -73.8381 3.94302
lowerback 6.64362 -0.75859 1.48209
upperback 0.00308287 -0.83425 2.24611
thorax -3.71148 -0.431572 1.57112
lowerneck -15.7304 10.2653 -3.57537
upperneck 21.6092 14.7319 1.38906
head 8.98127 6.69367 2.78491
rclavicle 2.76311e-014 3.33958e-014
rhumerus -34.5785 40.1315 -100.37
rradius 102.402
rwrist -8.03772
rhand -40.4371 26.104
rfingers 7.12502
rthumb -13.3891 -3.44579
lclavicle 2.76311e-014 3.33958e-014
lhumerus -35.8379 -38.7561 110.52
lradius 105.852
lwrist 30.2935
lhand -33.6007 28.1567
lfingers 7.12502
lthumb -6.79409 58.0277
rfemur -43.0709 -3.7424 19.6746
rtibia 46.269
rfoot -9.83689 -11.5032
rtoes 13.252
lfemur 0.0723871 3.25076 -17.736
ltibia 37.7498
lfoot -10.2483 -0.314341
ltoes -20.7826
207
root 13.0088 16.7724 -5.33552 4.37457 -73.2957 3.96443
lowerback 6.64817 -0.801824 1.37306
upperback -0.0374408 -0.896722 2.30826
thorax -3.75242 -0.460052 1.70356
lowerneck -15.7825 10.1602 -3.62381
upperneck 21.458 14.601 1.37326
head 8.94004 6.63402 2.76898
rclavicle -8.94531e-015 -7.95139e-016
rhumerus -34.5899 40.0759 -100.201
rradius 102.798
rwrist -7.7675
rhand -40.5579 26.5388
rfingers 7.12502
rthumb -13.5055 -3.00328
lclavicle -8.94531e-015 -7.95139e-016
lhumerus -35.808 -38.8663 110.766
lradius 106.116
lwrist 30.1685
lhand -33.879 27.9509
lfingers 7.12502
lthumb -7.06275 57.8131
rfemur -43.8035 -4.13426 19.5055
rtibia 46.5661
rfoot -9.58309 -11.6093
rtoes 13.33
lfemur 0.381739 2.71674 -17.9141
ltibia 36.6137
lfoot -11.7033 0.214082
ltoes -22.6209
208
root 13.1213 16.7357 -5.33167 4.54741 -72.7633 3.93645
lowerback 6.67691 -0.832267 1.26831
upperback -0.0587196 -0.941899 2.37042
thorax -3.7871 -0.480037 1.83219
lowerneck -15.8868 10.0555 -3.55936
upperneck 21.3398 14.4617 1.29273
head 8.93435 6.56918 2.72062
rclavicle -6.36111e-015 1.98785e-014
rhumerus -34.5645 40.0274 -100.004
rradius 103.197
rwrist -7.50845
rhand -40.6724 26.9614
rfingers 7.12502
rthumb -13.6159 -2.57326
lclavicle -6.36111e-015 1.98785e-014
lhumerus -35.7648 -38.999 111.01
lradius 106.382
lwrist 30.0263
lhand -34.1518 27.7454
lfingers 7.12502
lthumb -7.32606 57.5985
rfemur -44.5129 -4.53547 19.3546
rtibia 46.8811
rfoot -9.33246 -11.7003
rtoes 13.4154
lfemur 0.644543 2.19153 -18.082
ltibia 35.6166
lfoot -13.225 0.798892
ltoes -23.7316
209
root 13.2341 16.6969 -5.32827 4.61342 -72.2485 3.98319
lowerback 6.72293 -0.845832 1.12327
upperback -0.0600357 -0.968157 2.4242
thorax -3.81045 -0.489906 1.97306
lowerneck -16.0057 9.94634 -3.44838
upperneck 21.2242 14.3144 1.17395
head 8.93906 6.49917 2.65344
rclavicle 5.28767e-014 -4.77083e-015
rhumerus -34.5048 39.9832 -99.7819
rradius 103.598
rwrist -7.2741
rhand -40.7742 27.3674
rfingers 7.12502
rthumb -13.714 -2.16072
lclavicle 5.28767e-014 -4.77083e-015
lhumerus -35.7146 -39.1605 111.252
lradius 106.655
lwrist 29.8908
lhand -34.4194 27.5591
lfingers 7.12502
lthumb -7.58439 57.4031
rfemur -45.1975 -4.95015 19.1843
rtibia 47.2149
rfoot -9.08489 -11.7667
rtoes 13.5032
lfemur 0.859118 1.69597 -18.2824
ltibia 34.7531
lfoot -14.71 1.45422
ltoes -24.3943
210
root 13.347 16.6576 -5.32548 4.57569 -71.7482 4.09924
lowerback 6.78858 -0.851837 0.941843
upperback -0.0397789 -0.987731 2.46938
thorax -3.822 -0.495876 2.12498
lowerneck -16.1368 9.839 -3.32028
upperneck 21.1077 14.1696 1.03759
head 8.94801 6.42934 2.5789
rclavicle 4.09496e-014 1.51076e-014
rhumerus -34.4093 39.9605 -99.549
rradius 103.992
rwrist -7.0669
rhand -40.8523 27.7498
rfingers 7.12502
rthumb -13.7893 -1.77322
lclavicle 4.09496e-014 1.51076e-014
lhumerus -35.6522 -39.3288 111.48
lradius 106.931
lwrist 29.7757
lhand -34.7574 27.3631
lfingers 7.12502
lthumb -7.91059 57.1951
rfemur -45.8465 -5.37013 18.9916
rtibia 47.5613
rfoot -8.84325 -11.8186
rtoes 13.6033
lfemur 1.01618 1.22183 -18.5107
ltibia 34.0157
lfoot -16.087 2.13251
ltoes -24.428
211
root 13.459 16.6177 -5.3236 4.36819 -71.267 4.35439
lowerback 6.86718 -0.846149 0.713172
upperback 0.00416482 -0.996788 2.48672
thorax -3.81612 -0.496014 2.27351
lowerneck -16.2361 9.72365 -3.26317
upperneck 20.9448 14.0162 0.950328
head 8.92553 6.35845 2.52487
rclavicle -7.15625e-015 1.03368e-014
rhumerus -34.2777 39.9379 -99.3172
rradius 104.379
rwrist -6.86996
rhand -40.9142 28.1037
rfingers 7.12502
rthumb -13.8489 -1.41529
lclavicle -7.15625e-015 1.03368e-014
lhumerus -35.5849 -39.531 111.68
lradius 107.214
lwrist 29.6875
lhand -35.1665 27.1656
lfingers 7.12502
lthumb -8.30545 56.9823
rfemur -46.4603 -5.7901 18.7502
rtibia 47.9236
rfoot -8.60723 -11.8609
rtoes 13.698
lfemur 1.12343 0.804829 -18.7866
ltibia 33.3879
lfoot -17.3516 2.81392
ltoes -24.2512
212
root 13.5701 16.5773 -5.32311 3.9958 -70.7952 4.75755
lowerback 6.95712 -0.837556 0.432792
upperback 0.0611678 -1.00728 2.47449
thorax -3.80255 -0.496189 2.42072
lowerneck -16.2819 9.60316 -3.30814
upperneck 20.7261 13.8606 0.932016
head 8.86074 6.29002 2.5014
rclavicle -4.21423e-014 -2.06736e-014
rhumerus -34.1242 39.9197 -99.1113
rradius 104.749
rwrist -6.66598
rhand -40.9455 28.4164
rfingers 7.12502
rthumb -13.8791 -1.10045
lclavicle -4.21423e-014 -2.06736e-014
lhumerus -35.5249 -39.7411 111.842
lradius 107.504
lwrist 29.5986
lhand -35.5893 26.9826
lfingers 7.12502
lthumb -8.71348 56.7828
rfemur -47.0489 -6.20238 18.4503
rtibia 48.2976
rfoot -8.37676 -11.9062
rtoes 13.8043
lfemur 1.16995 0.460135 -19.111
ltibia 32.8616
lfoot -18.5335 3.46653
ltoes -23.9161
